<?xml version="1.0" encoding="UTF-8"?>
<svg xmlns="http://www.w3.org/2000/svg" id="Capa_2" data-name="Capa 2" viewBox="0 0 488.14 66.92">
  <defs>
    <style>
      .cls-1 {
        fill: none;
      }

      .cls-1, .cls-2, .cls-3, .cls-4, .cls-5, .cls-6 {
        stroke-width: 0px;
      }

      .cls-2 {
        fill: #fdc400;
      }

      .cls-3 {
        fill: #2a2e77;
      }

      .cls-4 {
        fill: #77787b;
      }

      .cls-5 {
        fill: #fff;
      }

      .cls-6 {
        fill: #2a2e77;
      }
    </style>
  </defs>
  <g id="logo">
    <g>
      <path class="cls-4" d="M2.48,59.05c2.06,1.43,4.7,2.54,7.87,2.54,2.91,0,5.81-1.11,5.81-4.12,0-6.82-15.06-5.97-15.06-16.59,0-5.13,4.07-9.62,11.31-9.62,3.59,0,6.6.79,8.51,1.74v5.81c-2.75-1.43-5.55-2.22-8.3-2.22-2.43,0-4.76.95-4.76,3.75,0,6.39,15.06,5.55,15.06,16.59,0,6.18-5.28,9.99-12.42,9.99-4.07,0-7.87-1.16-10.52-3.01l2.48-4.86Z"></path>
      <path class="cls-4" d="M30.3,31.57h8.4c3.22,0,5.76.48,7.82,1.48,3.59,1.8,5.65,5.18,5.65,9.93,0,4.02-1.74,8.19-6.66,10.2-1.9.74-4.28,1.22-7.4,1.22h-1.48v12h-6.34V31.57ZM38.54,49.22c1.69,0,3.07-.26,4.07-.79,1.95-.95,2.91-2.85,2.91-5.44,0-2.27-.9-4.23-2.75-5.34-1-.58-2.43-.9-4.33-.9h-1.8v12.47h1.9Z"></path>
      <path class="cls-4" d="M112.67,64.17c-3.86,2.11-7.56,2.75-11.04,2.75-11.41,0-17.6-7.34-17.6-17.54s7.19-18.13,18.39-18.13c3.81,0,6.97.74,9.14,1.69v5.92c-2.7-1.43-5.6-2.27-8.98-2.27-7.77,0-11.78,5.71-11.78,12.58,0,7.34,4.44,12.42,11.57,12.42,3.43,0,6.08-1.01,8.56-2.43l1.74,5.02Z"></path>
      <path class="cls-2" d="M119.01,31.57h6.34v34.82h-6.34V31.57Z"></path>
      <path class="cls-4" d="M143.6,31.41h4.86l13.95,34.98h-6.71l-3.38-8.72h-12.42l-3.28,8.72h-6.5l13.47-34.98ZM150.36,52.49l-2.43-6.92c-.95-2.64-1.43-4.23-1.74-5.39h-.11c-.32,1.22-.85,2.75-1.8,5.44l-2.54,6.87h8.61Z"></path>
      <path class="cls-4" d="M167.3,31.57h6.34v29.64h12.37v5.18h-18.71V31.57Z"></path>
      <path class="cls-2" d="M191.24,31.57h6.34v34.82h-6.34V31.57Z"></path>
      <path class="cls-4" d="M206.6,59.05c2.06,1.43,4.7,2.54,7.87,2.54,2.91,0,5.81-1.11,5.81-4.12,0-6.82-15.06-5.97-15.06-16.59,0-5.13,4.07-9.62,11.31-9.62,3.59,0,6.61.79,8.51,1.74v5.81c-2.75-1.43-5.55-2.22-8.3-2.22-2.43,0-4.75.95-4.75,3.75,0,6.39,15.06,5.55,15.06,16.59,0,6.18-5.28,9.99-12.42,9.99-4.07,0-7.87-1.16-10.51-3.01l2.48-4.86Z"></path>
      <path class="cls-4" d="M241.01,36.75h-10.14v-5.18h27.48l-1.64,5.18h-9.35v29.64h-6.34v-29.64Z"></path>
      <path class="cls-4" d="M291.68,31.57h9.51c3.28,0,5.6.53,7.45,1.43,3.7,1.75,5.18,4.97,5.18,8.51,0,4.65-2.8,7.71-6.82,8.98v.11c1.06.58,2.48,2.48,4.33,5.65l5.82,10.15h-7.29l-5.02-8.82c-1.69-3.12-2.96-4.54-3.8-4.76h-3.01v13.58h-6.34V31.57ZM300.88,47.63c1.64,0,2.8-.32,3.86-.9,1.48-.85,2.43-2.43,2.43-4.6,0-1.85-.79-3.49-2.33-4.39-.84-.58-2.01-1-3.91-1h-2.91v10.88h2.85Z"></path>
      <path class="cls-4" d="M323.27,31.57h6.29l14.85,19.02c1.59,2.06,2.85,3.8,3.91,5.39h.11c-.11-1.85-.11-3.96-.11-5.87v-18.55h6.39v34.82h-5.81l-15.38-19.82c-1.53-1.96-2.75-3.7-3.91-5.34h-.1c.1,1.43.1,3.43.1,5.39v19.76h-6.34V31.57Z"></path>
      <path class="cls-4" d="M364.35,31.57h20.26l-1.69,5.18h-12.23v9.3h12.54v5.18h-12.54v9.99h12.95v5.18h-19.29V31.57Z"></path>
      <path class="cls-4" d="M263.36,31.57h20.27l-1.69,5.18h-12.23v9.3h12.55v5.18h-12.55v9.99h12.95v5.18h-19.29V31.57Z"></path>
      <path class="cls-4" d="M58.49,31.57h20.26l-1.69,5.18h-12.23v9.3h12.54v5.18h-12.54v9.99h12.95v5.18h-19.29V31.57Z"></path>
      <g>
        <path class="cls-2" d="M438.44,62.16v4.49h-3.21v-4.54l-4.32-7.98h3.38l2.69,4.97,2.69-4.97h3.11l-4.34,8.03Z"></path>
        <path class="cls-2" d="M452.64,63.91v2.74h-9.1v-12.52h8.89v2.74h-5.72v2.11h5.04v2.65h-5.04v2.29h5.93Z"></path>
        <path class="cls-2" d="M462.23,64.22h-4.79l-.89,2.43h-3.27l5-12.52h3.16l5.02,12.52h-3.34l-.89-2.43ZM461.29,61.61l-1.46-4.01-1.46,4.01h2.92Z"></path>
        <path class="cls-2" d="M472.32,63.32h-1.75v3.33h-3.21v-12.52h5.18c3.09,0,5.04,1.77,5.04,4.63,0,1.84-.81,3.2-2.22,3.95l2.45,3.94h-3.43l-2.06-3.33ZM472.35,56.92h-1.78v3.67h1.78c1.33,0,1.99-.68,1.99-1.82s-.66-1.84-1.99-1.84Z"></path>
        <path class="cls-2" d="M478.34,65.33l1.05-2.51c1,.71,2.43,1.19,3.74,1.19s1.85-.4,1.85-.98c0-1.91-6.45-.52-6.45-4.99,0-2.15,1.65-3.9,5.02-3.9,1.47,0,3,.36,4.11,1.05l-.99,2.53c-1.09-.62-2.15-.93-3.14-.93-1.34,0-1.83.48-1.83,1.08,0,1.84,6.43.46,6.43,4.9,0,2.1-1.65,3.89-5.02,3.89-1.86,0-3.71-.53-4.78-1.32Z"></path>
        <path class="cls-6" d="M455.85,11.54s0,0,0,0c0,0,0,0,0,0Z"></path>
        <path class="cls-6" d="M455.9,11.53s0,0,0,0c0,0,0,0,0,0Z"></path>
        <path class="cls-6" d="M455.81,11.64s0,0,0,0c0,0,0,0,0,0Z"></path>
        <path class="cls-6" d="M455.91,11.75s.01,0,.02.01c0,0-.01,0-.02-.01Z"></path>
        <path class="cls-6" d="M455.8,11.6s0,0,0,0c0,0,0,0,0,0Z"></path>
        <path class="cls-6" d="M455.85,11.69s0,0,0,0c0,0,0,0,0,0Z"></path>
        <path class="cls-6" d="M455.81,11.57s0,0,0,0c0,0,0,0,0,0Z"></path>
        <polygon class="cls-6" points="455.95 11.53 455.96 11.53 455.96 11.52 455.95 11.53"></polygon>
        <path class="cls-5" d="M455.96,11.53s.1,0,.16.02c-.05-.01-.11-.02-.16-.02Z"></path>
        <path class="cls-5" d="M455.82,11.56s.02-.01.03-.02c-.01,0-.02.01-.03.02Z"></path>
        <path class="cls-5" d="M455.81,11.64s0-.03,0-.04c0,.01,0,.02,0,.04Z"></path>
        <path class="cls-5" d="M455.91,11.75s-.05-.04-.06-.05c.02.02.04.03.06.05Z"></path>
        <path class="cls-5" d="M455.81,11.57s0,.02-.01.03c0,0,0-.02.01-.03Z"></path>
        <path class="cls-5" d="M455.82,11.64s.02.03.03.04c-.01-.01-.02-.03-.03-.04Z"></path>
        <path class="cls-5" d="M455.93,11.76s.06.04.09.06c-.04-.02-.07-.04-.09-.06Z"></path>
        <path class="cls-5" d="M455.95,11.53s-.04,0-.05,0c.02,0,.03,0,.05,0Z"></path>
        <path class="cls-5" d="M455.89,11.53s-.03,0-.04.01c.01,0,.03,0,.04-.01Z"></path>
        <path class="cls-1" d="M455.95,11.53s-.04,0-.05,0c.02,0,.03,0,.05,0Z"></path>
        <path class="cls-1" d="M455.89,11.53s-.03,0-.04.01c.01,0,.03,0,.04-.01Z"></path>
        <path class="cls-1" d="M455.81,11.57s0,.02-.01.03c0,0,0-.02.01-.03Z"></path>
        <path class="cls-1" d="M455.93,11.76s.06.04.09.06c-.04-.02-.07-.04-.09-.06Z"></path>
        <path class="cls-1" d="M455.82,11.64s.02.03.03.04c-.01-.01-.02-.03-.03-.04Z"></path>
        <path class="cls-1" d="M455.82,11.56s.02-.01.03-.02c-.01,0-.02.01-.03.02Z"></path>
        <path class="cls-1" d="M455.81,11.64s0-.03,0-.04c0,.01,0,.02,0,.04Z"></path>
        <path class="cls-1" d="M455.96,11.53s.1,0,.16.02c-.05-.01-.11-.02-.16-.02Z"></path>
        <path class="cls-1" d="M455.91,11.75s-.05-.04-.06-.05c.02.02.04.03.06.05Z"></path>
        <polygon class="cls-5" points="455.95 11.53 455.96 11.53 455.96 11.52 455.95 11.53"></polygon>
        <path class="cls-5" d="M455.85,11.69s0,0,0,0c0,0,0,0,0,0Z"></path>
        <path class="cls-5" d="M455.8,11.6s0,0,0,0c0,0,0,0,0,0Z"></path>
        <path class="cls-5" d="M455.81,11.57s0,0,0,0c0,0,0,0,0,0Z"></path>
        <path class="cls-5" d="M455.91,11.75s.01,0,.02.01c0,0-.01,0-.02-.01Z"></path>
        <path class="cls-5" d="M455.81,11.64s0,0,0,0c0,0,0,0,0,0Z"></path>
        <path class="cls-5" d="M455.9,11.53s0,0,0,0c0,0,0,0,0,0Z"></path>
        <path class="cls-5" d="M455.85,11.54s0,0,0,0c0,0,0,0,0,0Z"></path>
        <path class="cls-3" d="M483.8,30.01c-.46-.05-.86-.15-1.17-.3-.38-.18-.65-.35-.84-.5-.02.02-.03.05-.05.07-.14.22-.29.48-.44.76-.12.22-.26.46-.4.71v.03c.02.06.02.11,0,.17v.05c-.03.05-.05.1-.09.14l-.03.03s-.06.04-.09.06c.13.08.19.19.18.33-.02.31-.43.45-.8.47,0,0-.02,0-.03,0-.06.08-.12.15-.18.22.3.11.53.23.5.48-.03.29-.36.33-.74.38-.03,0-.06,0-.08,0h-.05s-.04,0-.06,0c-.03,0-.06-.01-.1-.02h-.06s-.07-.03-.1-.05h0c-.06.06-.11.11-.16.15.11.06.2.12.29.19.06.05.12.1.17.16.01.02.03.03.04.04.04.05.07.08.09.12.01.02.02.04.03.06.02.05.04.08.05.12,0,.02.02.04.02.07.01.04.02.07.02.11,0,.02,0,.04,0,.06,0,.05,0,.08-.01.12v.05c-.04.08-.08.14-.14.18l-.05.04h-.04s-.08.03-.12.03h-.08c-.05-.02-.11-.05-.17-.09-.04-.03-.07-.06-.11-.09-.04-.03-.06-.05-.09-.07-.01,0-.02-.02-.03-.02-.04.03-.08.05-.13.07l-.05.02s-.07.02-.1.03c-.02,0-.04,0-.05,0-.03,0-.06,0-.09,0h-.08s-.03,0-.03,0c-.03,0-.06,0-.09,0l-.26-.03-.08-.03s-.03-.01-.07-.04c-.06.04-.12.07-.19.11-.1.05-.19.1-.28.15l-.07.04c-.08.04-.16.08-.23.11h-.03c-.08.05-.15.08-.22.11l-.04.02c-.07.03-.13.05-.19.06h-.04c-.07.03-.13.04-.19.05h-.04s-.06,0-.08,0h-.06c-.05,0-.11-.02-.16-.03-.03,0-.05-.01-.07-.02-.08-.03-.16-.06-.23-.1l-.05-.04c-.07-.07-.14-.21-.12-.39.04-.32.33-.66.89-1.04-.35-.3-.63-.61-.83-.92-.34-.53-.54-.95-.65-1.27-.07.03-.14.06-.21.09-.32.16-.68.36-1.07.57-.3.17-.61.34-.95.52-.24,3.49-1.38,5.75-3.39,7.98-2.29,2.54-5.37,3.82-9.17,3.82s-6.95-1.27-9.23-3.79c-2.28-2.51-3.44-5.27-3.44-9.45s1.16-7.63,3.44-10.12c1.8-1.96,4.11-3.16,6.88-3.58.21-.63.42-1.35.52-1.88.12-.59.16-1.05.18-1.36-.33-.11-.76-.37-1.2-.93-.1-.13-.74-.52-1.08-.72-.13-.08-.25-.15-.34-.21-.04-.03-.08-.05-.11-.08l-.02-.02s-.07-.06-.09-.08c-.04-.04-.06-.07-.08-.1v-.02c-.04-.05-.05-.11-.05-.16v-.05s.03-.1.07-.15c.05-.06.09-.09.14-.11.04-.02.07-.03.1-.03h.03s.06-.01.09-.01h.03c.07,0,.14.01.21.03.1.02.19.08.3.15,0,0,0,0,0,0l.06-.03s.02,0,.03-.01c-.05-.08-.1-.18-.15-.33-.02-.06-.04-.11-.05-.15v-.03s-.03-.09-.03-.13v-.02s0-.02,0-.02c0-.03,0-.08.02-.12v-.03s.03-.04.03-.04c.02-.04.06-.07.1-.1l.04-.04h.16s.03,0,.03,0c.02,0,.03,0,.05.01h.04s.03.03.05.04c.02.01.04.02.05.03,0-.01,0-.03,0-.04v-.04s0-.08,0-.12v-.05c.03-.06.07-.11.12-.15l.05-.03s.08-.04.12-.04h.11s.03,0,.03,0c.03,0,.07.02.1.03l.04.02c.05.03.1.06.14.09.19.16.22.34.26.49.02.08.03.17.08.28.09.25.13.3.43.62,0-.02,0-.04,0-.06-.02-.09-.09-.2-.17-.32-.13-.19-.27-.41-.31-.69,0-.06-.01-.11-.01-.15h0s0-.04,0-.04c0-.03,0-.07,0-.09l.02-.07s.02-.07.06-.11l.12-.11h.15s.02-.04.04-.06l.1-.1h.21s0-.04,0-.04v-.06s0-.02.03-.08l.04-.07s.02-.03.05-.06l.04-.04s.04-.03.06-.05l.05-.03s.05-.02.08-.03c.02,0,.03-.01.06-.02.03,0,.06-.01.09-.02.02,0,.04,0,.07,0,.04,0,.07,0,.1,0-.04-.03-.07-.06-.1-.09-.04-.04-.07-.08-.1-.12l-.02-.03s-.04-.06-.06-.08l-.02-.04s-.04-.1-.04-.14v-.07s.02-.05.02-.05c.04-.12.16-.2.29-.2.05,0,.08,0,.13.02h.03s-.04-.03-.05-.05l-.02-.03s-.04-.05-.05-.08l-.02-.02s-.04-.07-.05-.1v-.04s-.03-.06-.03-.09v-.03s0-.04,0-.04c0-.05.02-.1.05-.14l.02-.04.05-.04s.07-.04.11-.05c0-.02,0-.03,0-.05l.02-.07s.05-.09.09-.13l.04-.03s.04-.03.08-.05h.03s.08-.03.11-.04h.02s.08,0,.13,0c.02,0,.04,0,.06.01.06.01.11.03.16.06.04.02.07.04.09.05.02-.02.04-.04.06-.06l.05-.03v-.04s-.02-.04-.02-.06c-.06,0-.12,0-.18,0-4.33,0-8.35,1.02-11.96,3.03-.84.47-1.64.98-2.4,1.54-.91-2.35-2.27-4.44-4.06-6.25C438.09,1.86,432.67.02,425.49.02c-4.16,0-7.95.81-11.36,2.44-3.41,1.63-6.16,4.16-8.24,7.61-2.08,3.44-3.18,7.73-3.3,12.86h14.94c0-3.14.65-5.57,1.95-7.29,1.3-1.72,3.09-2.58,5.39-2.58s4.01.69,5.16,2.08c1.15,1.39,1.72,3.32,1.72,5.79,0,3.26-1.18,6.61-3.53,10.05-2.35,3.44-5.24,6.73-8.65,9.87-3.41,3.14-8.07,7.15-13.99,12.04.18-.12-.76.63-2.81,2.26v11.5h31.44l-.07-4.42-2.41-4.53-2.11-3.64h-5.85c5.7-4.39,10.55-8.87,14.56-13.44.37.84.76,1.73,1.25,2.46,2.76,4.16,4.24,5.65,7.84,7.66,3.61,2.01,8.41,2.78,12.74,2.78s8.34-1.02,11.93-3.03c3.58-2.01,6.46-4.86,8.56-8.46,2.1-3.6,3.16-6.66,3.16-11.17,0-.27,0-.54-.02-.86Z"></path>
        <path class="cls-3" d="M473.75,3.65c0,.06.09.16.09.16,0,0,.38.22.71.22.21,0,.35-.03.42-.05.01.04.02.08.03.14.03.21.03.49.07.79.09.67.28,1.02.28,1.02,0,0-.05.11.17.41.22.3.31.4.47.38,0,0,.16-.06-.12-.5,0,0-.19-.26-.38-.31-.13-.04-.31-.88-.35-1.32-.03-.3-.02-.5,0-.61.11,0,.29-.06.5-.28.07-.07.43-.23.59-.31.17-.08.07-.12-.02-.11-.1.01-.28.19-.43.25-.14.06.08-.11.18-.17.1-.06.03-.09-.03-.05-.06.04-.23.16-.13,0,.1-.15.14-.11.21-.27.1-.21-.04-.08-.14-.02-.09.06-.18.18-.25.32-.07.13-.3.19-.23.12.08-.07.12-.13.16-.17.04-.05.16-.28.25-.4.09-.12.02-.15-.06-.1-.08.05-.06.12-.12.24-.06.12-.09.14-.28.31-.19.17-.12.12-.1.06.02-.06-.03-.13,0-.25.03-.11.18-.21.22-.35.04-.15-.02-.12-.09.02-.07.14-.12.18-.1.14.02-.04.06-.15.09-.27.03-.12-.06,0-.11.09-.05.1-.15.25-.15.35,0,.1-.05.39-.05.33,0-.06-.02-.1-.04-.22-.03-.12.02-.33.05-.51.02-.18-.07-.07-.1.06-.03.13-.02.23-.03.2,0-.03-.02-.13-.09-.29-.07-.16-.03.19.03.4.06.21.01.31,0,.27,0-.04-.01-.12-.04-.15-.03-.03-.04-.07-.11-.16-.06-.1-.04-.27-.1-.34-.06-.06-.04.12-.01.24.03.13.03.2.1.34.07.14.21.34.16.32-.05-.02-.13-.18-.19-.27-.07-.09-.09-.22-.13-.35-.03-.13-.09-.14-.08-.06.01.08.08.23,0,.09-.08-.14-.06-.07-.16-.17-.1-.1-.2,0-.12.02.08.02.1.07.14.11.04.05.02.11.1.23.09.12.12.17.19.27s.08.1-.06-.01c-.14-.11-.18-.1-.24-.2-.07-.1-.08-.17-.2-.29-.12-.12-.12-.01-.06.1.06.11.05.13.1.19.05.06.2.19.12.15-.09-.04-.14-.01-.3-.14-.16-.13-.16-.09-.09.05.07.14.52.24.39.35-.13.11-.35-.08-.49-.13-.14-.05-.22.03-.16.05.06.02.13.03.12.09Z"></path>
        <path class="cls-3" d="M476.82,1.75c.38.18,1.18.53,1.34.7.48.5.9.62,1.14.64.03.25.05.71-.01,1.38-.1,1-.5,2.91-.8,2.99-.43.11-.86.71-.86.71-.64,1-.28,1.13-.28,1.13.36.04.57-.19,1.06-.86.49-.67.38-.92.38-.92,0,0,.43-.79.63-2.31.09-.68.09-1.29.15-1.78.02-.12.04-.23.06-.31.16.05.47.12.95.12.74,0,1.6-.5,1.6-.5,0,0,.21-.21.19-.36-.02-.15.14-.16.27-.21.14-.05-.03-.23-.35-.12-.33.11-.82.55-1.11.3-.3-.24.73-.46.89-.78.16-.32.16-.4-.2-.11-.36.29-.49.22-.68.31-.19.09.14-.2.26-.34.12-.14.09-.19.23-.43.14-.24.13-.5-.13-.22-.26.28-.3.43-.45.66-.15.23-.23.2-.55.46-.32.26-.3.27-.14.03.16-.23.24-.33.44-.61.19-.27.14-.42.23-.52.09-.1.14-.2.32-.25.18-.05-.03-.26-.27-.04-.23.22-.18.07-.37.39-.19.32-.04-.01-.01-.19.02-.18-.12-.15-.19.14-.07.29-.14.59-.28.79-.15.2-.33.56-.44.61-.11.05.22-.4.37-.72.16-.33.15-.49.22-.78.07-.29.11-.7-.02-.55s-.09.55-.23.76c-.14.22-.17.29-.24.37-.07.07-.09.27-.1.35-.01.08-.13-.14.02-.62.14-.48.23-1.29.07-.92-.16.37-.17.59-.2.65-.02.07.01-.16-.06-.45-.07-.29-.28-.53-.23-.13.05.4.17.89.1,1.15-.06.26-.08.35-.1.5-.01.14-.11-.51-.12-.74,0-.23-.22-.57-.34-.79-.12-.22-.31-.49-.25-.21.07.28.16.52.2.61.04.09-.07,0-.23-.31-.16-.31-.29-.37-.21-.04.08.33.42.54.49.8.07.26-.04.41.01.56.05.15.21.25-.22-.13-.43-.38-.48-.42-.62-.69-.14-.27-.1-.42-.27-.53-.17-.12-.34-.05-.13.23.2.27.46.81.56.91.1.1.18.22.37.38.16.14-.34.02-.51-.28-.17-.3-.35-.59-.57-.72-.21-.13-.53-.42-.31.06.17.36.25.28.47.62.22.34-.16.07-.29-.02-.13-.08-.29-.02-.06.11.23.13.73.5.41.38-.32-.13-.75-.52-.97-.56-.22-.03-.43.06-.05.24Z"></path>
        <path class="cls-3" d="M476.03,10.09c-.12.07-.15.1-.21.12-.05.02-.11.11-.13.14-.03.04-.03-.1.16-.3.18-.2.42-.57.26-.43-.16.14-.23.24-.25.27-.03.03.04-.08.08-.23.03-.16,0-.32-.08-.12-.07.2-.13.47-.23.58-.09.11-.13.15-.17.22-.04.07.07-.27.12-.39.05-.11.03-.33.03-.46,0-.13-.03-.31-.07-.16-.03.15-.05.29-.05.35,0,.05-.03-.02-.04-.21,0-.19-.05-.25-.09-.07-.04.18.07.37.05.51-.03.14-.12.19-.13.27,0,.08.04.17-.08-.11-.11-.29-.13-.32-.14-.49,0-.17.05-.23,0-.32-.05-.1-.15-.1-.12.08.03.18.03.5.05.58.02.07.04.15.09.28.04.11-.17-.07-.18-.26,0-.19-.03-.37-.1-.48-.07-.11-.16-.33-.16-.05,0,.22.05.2.08.41.03.22-.09,0-.14-.08-.04-.07-.13-.08-.05.04.08.12.23.42.11.28-.13-.14-.24-.43-.33-.5-.1-.07-.22-.08-.08.1.14.18.44.54.48.66.11.36.29.52.4.58-.05.13-.15.36-.34.67,0,0-.01.02-.02.02-.14.21-.34.5-.55.74-.24.28-.46.51-.55.49-.23-.05-.59.14-.59.14-.55.33-.41.48-.41.48.17.11.32.05.72-.16.4-.21.4-.35.4-.35,0,0,.2-.14.48-.47.12-.14.25-.3.38-.5.07-.1.13-.2.19-.3.12-.2.22-.38.31-.52.04-.06.07-.1.11-.14.06.06.2.17.43.29.36.18.9.14.9.14,0,0,.15-.05.18-.13.03-.07.11-.05.18-.04.08,0,.04-.12-.14-.14-.19-.02-.53.07-.61-.12-.09-.19.47-.05.62-.17.15-.12.17-.15-.07-.1-.24.05-.29-.01-.41-.01-.11,0,.12-.06.21-.1.09-.04.09-.07.22-.15.13-.08.18-.21-.01-.14-.19.07-.25.14-.38.21-.13.08-.16.04-.38.09-.22.05-.21.06-.08-.02.13-.07.2-.1.36-.19.16-.09.17-.17.24-.2.07-.03.11-.06.22-.05.1.02.05-.13-.12-.09-.17.05-.1-.01-.27.1-.17.11-.01-.01.04-.1.05-.08-.02-.1-.13.02-.11.12-.21.25-.33.32-.12.06-.29.19-.36.19-.06,0,.2-.14.35-.26.15-.12.19-.2.29-.33.1-.12.22-.31.12-.27-.1.04-.18.24-.3.31Z"></path>
        <path class="cls-3" d="M482.58,5.03c-.02-.16.02-.23-.05-.32-.07-.09-.16-.08-.11.09.06.18.1.49.13.56.03.07.06.14.12.26.06.1-.18-.05-.22-.23-.03-.18-.08-.36-.17-.47-.09-.1-.2-.31-.17-.02.02.21.08.19.14.4.06.21-.09,0-.14-.06-.05-.06-.14-.06-.05.05.09.11.29.38.14.26-.14-.12-.29-.4-.4-.45-.11-.05-.23-.04-.07.11.16.16.51.48.57.59.16.34.35.47.47.52-.03.13-.1.37-.24.71-.22.5-.76,1.41-.93,1.4-.24-.02-.56.22-.56.22-.5.4-.34.53-.34.53.18.08.33,0,.69-.26.37-.26.35-.41.35-.41,0,0,.36-.33.72-1.08.16-.33.27-.65.38-.89.03-.06.06-.11.09-.15.07.05.22.14.47.22.38.13.91.02.91.02,0,0,.14-.07.16-.15.02-.08.1-.06.18-.06.08,0,.02-.12-.16-.12-.19,0-.51.14-.62-.04-.11-.17.45-.11.59-.25.14-.14.15-.18-.08-.09-.23.08-.29.03-.41.04-.11.01.11-.08.19-.13.09-.05.08-.08.19-.18.11-.1.15-.23-.03-.13-.18.1-.23.17-.34.26-.12.09-.15.06-.36.14-.21.08-.2.08-.08,0,.12-.09.18-.13.33-.24.15-.11.14-.19.21-.23.07-.04.11-.08.21-.08.1,0,.03-.14-.13-.07-.16.07-.1,0-.26.13-.15.13-.02-.01.03-.1.04-.09-.04-.1-.12.04-.09.14-.17.28-.28.36-.11.08-.26.23-.33.24-.06,0,.18-.17.32-.31.14-.14.16-.23.25-.36.08-.14.18-.34.08-.29-.09.05-.14.26-.25.35-.11.09-.14.12-.19.15-.05.03-.09.12-.11.16-.02.04-.04-.09.12-.31.16-.22.34-.62.2-.46-.14.16-.19.27-.21.3-.02.03.03-.08.05-.24.01-.16-.05-.32-.1-.11-.04.21-.07.49-.14.61-.08.12-.1.17-.14.24-.03.07.03-.28.07-.4.04-.12-.01-.33-.04-.46-.03-.13-.08-.31-.09-.15-.01.15,0,.3,0,.35,0,.05-.04-.01-.06-.2-.03-.19-.09-.24-.1-.05-.02.19.12.35.12.5,0,.15-.09.2-.09.29,0,.08.06.16-.09-.1-.15-.27-.18-.3-.2-.46Z"></path>
        <path class="cls-3" d="M483.81,4s.13.05.19-.39c0,0,.02-.27-.08-.41-.07-.09.27-.74.48-1.04.14-.21.26-.33.32-.4.07.05.22.12.47.09.09,0,.4.08.55.12.15.04.11-.04.04-.08-.07-.04-.29-.03-.41-.07-.12-.04.11-.03.21-.01.1.02.07-.04.01-.05-.06,0-.23-.02-.09-.06.14-.04.15,0,.28-.06.18-.08.02-.08-.07-.09-.09-.01-.21.02-.33.07-.12.05-.29-.04-.21-.04.09,0,.15-.02.2-.02.05,0,.25-.1.38-.13.12-.03.09-.09.02-.1-.08,0-.1.04-.2.09-.1.04-.13.04-.34.05-.21,0-.14.01-.09-.02.05-.03.05-.1.13-.16.08-.06.23-.04.33-.11.1-.08.05-.09-.07-.04-.12.05-.17.05-.14.03.03-.02.12-.06.2-.13.08-.06-.03-.03-.12,0-.09.03-.23.08-.28.14-.06.06-.24.23-.21.18.03-.04.05-.08.09-.16.04-.09.2-.2.3-.3.11-.1,0-.08-.1-.02-.09.07-.13.14-.12.11,0-.02.06-.09.1-.23.04-.14-.12.11-.2.28-.07.17-.16.21-.14.18.02-.03.06-.08.05-.12,0-.04,0-.07.02-.16.01-.09.12-.2.12-.27,0-.07-.09.05-.14.15-.05.1-.09.14-.12.27-.03.13-.05.33-.07.29-.02-.04.01-.18.02-.28,0-.09.06-.19.11-.29.05-.1.02-.14-.02-.09-.04.06-.07.19-.05.05.02-.14,0-.08-.01-.2-.02-.12-.12-.11-.09-.05.04.06.03.1.03.15,0,.05-.05.08-.06.2-.01.12-.01.17-.02.28s0,.11-.03-.04c-.03-.15-.06-.16-.05-.26.01-.1.04-.15.03-.3,0-.14-.07-.07-.09.03-.02.1-.04.11-.04.18,0,.07.03.23,0,.16-.03-.07-.09-.08-.12-.25-.03-.17-.05-.14-.08-.02-.03.13.21.44.07.43-.14,0-.18-.24-.24-.35-.07-.11-.16-.1-.13-.05.03.05.07.09.03.12-.04.04-.03.15-.03.15,0,0,.13.35.34.52.14.11.24.17.3.19-.01.03-.03.06-.06.1-.1.15-.24.33-.38.54-.3.48-.37.81-.37.81,0,0-.09.04-.11.35-.02.31-.01.42.1.5Z"></path>
        <path class="cls-3" d="M487.4,17.34c-.72-.11-2.07.21-2.38-.54-.31-.74,1.82-.14,2.43-.58.61-.44.7-.58-.26-.41-.96.18-1.14-.07-1.59-.1-.45-.02.46-.22.83-.37.37-.14.36-.26.86-.58.5-.32.74-.8-.03-.53-.77.27-.99.51-1.49.79-.51.28-.62.15-1.48.31-.85.16-.83.2-.29-.08.53-.27.78-.38,1.42-.7.63-.32.68-.65.96-.75.28-.1.46-.23.84-.16.39.08.2-.52-.46-.35-.65.17-.4-.06-1.08.35-.67.41-.05-.06.17-.37.22-.31-.07-.4-.5.07-.42.47-.84.97-1.32,1.2-.48.23-1.17.71-1.42.7-.25-.01.8-.52,1.41-.98.61-.46.76-.77,1.18-1.24.41-.47.89-1.2.5-1.06-.39.14-.71.93-1.19,1.2-.48.27-.6.38-.81.45-.21.07-.43.42-.53.55-.1.14-.09-.39.64-1.14.74-.75,1.7-2.18,1.04-1.64-.66.54-.91.93-1.01,1.03-.11.1.18-.3.34-.9.15-.61,0-1.26-.3-.47-.31.79-.57,1.83-.95,2.26-.37.43-.51.57-.68.83-.17.25.29-1.06.51-1.5.21-.43.16-1.28.15-1.81-.01-.53-.1-1.22-.25-.64-.15.58-.22,1.14-.23,1.35,0,.21-.13-.07-.12-.82.01-.75-.18-.98-.36-.27-.18.71.25,1.43.13,1.99-.12.55-.48.72-.53,1.05-.05.33.13.67-.28-.46-.42-1.13-.49-1.26-.48-1.91.01-.65.23-.88.03-1.27-.2-.39-.58-.42-.47.29.11.71.05,1.96.13,2.26.08.28.13.59.31,1.08.16.43-.67-.29-.68-1.03-.02-.73-.08-1.45-.35-1.9-.27-.45-.57-1.31-.63-.2-.05.84.19.77.27,1.63.08.86-.36-.03-.52-.31-.16-.28-.51-.33-.22.15.29.48.87,1.67.39,1.11-.48-.56-.88-1.72-1.25-2-.38-.28-.86-.32-.34.4.52.72,1.67,2.17,1.81,2.64.4,1.41,1.06,2.04,1.49,2.31-.11.26-.28.65-.53,1.13-.22.41-.5.89-.86,1.44-1.17,1.77-3.83,4.95-4.47,4.8-.51-.12-1.16.04-1.64.2,0,0,0,0,0,0-.02-.14.12-.17.25-.22.13-.05-.04-.22-.35-.09-.31.13-.77.58-1.07.36-.3-.22.69-.49.82-.81.13-.32.14-.4-.2-.1-.34.3-.47.24-.65.34-.18.1.13-.2.24-.34.11-.14.08-.19.2-.42.58.24.46-.21.14-.55-.36-.37-1.69-.65-2.36-1.09-.68-.44.71.02,1.27.27.56.25.47-.12.13-.26-.33-.14-1.37-.49-.42-.53.95-.03.9.24,1.82.07.03,0,.05-.01.08-.02.06.58.12.81.38.92,0,0,.3.06.26-.89,0,0-.06-.58-.31-.83-.06-.06-.04-.29.03-.59.26-.08.26-.25.1-.39.14-.48.35-1.04.51-1.4.22-.49.42-.79.54-.95.17.08.51.17,1.03.02.18-.05.87.03,1.2.05.33.02.22-.12.06-.19-.16-.07-.61.04-.88,0-.27-.04.22-.1.43-.1.21,0,.13-.1,0-.1-.12,0-.49.04-.2-.1.29-.15.31-.05.57-.24.34-.24,0-.17-.19-.16-.2,0-.44.13-.68.27-.24.14-.63.02-.46-.01.19-.04.3-.09.41-.12.11-.03.5-.3.75-.4.25-.11.16-.22,0-.21-.16.01-.19.13-.4.26-.2.13-.26.14-.7.23-.44.09-.3.08-.2,0,.09-.08.07-.23.23-.38.15-.15.47-.16.66-.35.19-.2.08-.21-.16-.06-.24.15-.35.17-.28.12.07-.04.23-.18.38-.34.16-.16-.08-.05-.25.05-.17.1-.45.25-.55.41-.1.15-.42.56-.38.46.05-.1.07-.18.13-.38.06-.2.34-.5.53-.75.19-.25-.05-.17-.21,0-.16.17-.23.34-.22.29.01-.05.09-.21.13-.53.04-.32-.22.27-.31.66-.09.38-.26.49-.24.43.02-.06.09-.2.07-.28-.02-.08-.01-.14-.02-.35,0-.2.18-.46.15-.62s-.17.14-.24.37c-.07.22-.14.34-.16.62-.02.29.02.72-.03.64-.05-.08-.04-.39-.06-.59-.02-.2.05-.43.12-.66.07-.23-.02-.31-.08-.17-.06.13-.08.42-.09.13,0-.3-.03-.17-.1-.41-.07-.24-.3-.19-.2-.08.1.11.09.19.12.3.02.11-.07.19-.05.45.02.27.04.37.06.59s.04.23-.08-.08c-.12-.3-.18-.31-.19-.53,0-.22.02-.34-.04-.63-.07-.3-.17-.13-.18.1,0,.22-.04.24-.01.39.03.15.14.47.05.34-.1-.14-.21-.15-.35-.49-.13-.34-.16-.28-.18,0-.02.28.6.84.3.89-.3.05-.47-.45-.64-.65-.18-.21-.36-.15-.29-.06.07.09.17.16.1.25-.07.09,0,.32,0,.32,0,0,.39.69.9.98.33.19.57.27.7.3-.02.07-.04.15-.08.24-.15.36-.4.78-.6,1.28-.13.31-.23.6-.3.84-.02,0-.04-.02-.06-.02-.45-.17-.67.1-1.38.21-.71.1-.86.04-2.16-.26-1.3-.3-.89-.15-.54-.25.35-.1.48-.52,1.07-.73.59-.21,1.45.16,2.2-.14.75-.29.46-.47-.35-.36-.82.12-1.14.02-.91-.02.23-.04.83-.19,1.44-.44.62-.25-.16-.24-.74-.19-.58.06-1.52.12-1.96.42-.44.29-1.82.98-1.57.76.25-.22.4-.39.81-.86.41-.47,1.52-.91,2.34-1.35.82-.45.09-.52-.56-.27s-1.04.63-.94.49c.1-.13.49-.46.99-1.25.5-.8-.93.46-1.65,1.37-.72.91-1.29,1-1.16.87.13-.13.49-.42.53-.66.04-.24.15-.39.37-.95.09-.22.28-.43.48-.63.34.02.55-.21,1.03-.86.49-.67.38-.92.38-.92,0,0,.36-.66.57-1.92.02-.13.04-.26.06-.4.02-.17.04-.33.05-.48.04-.49.05-.93.1-1.29.02-.12.04-.23.06-.31.16.05.47.12.95.12.74,0,1.6-.5,1.6-.5,0,0,.21-.21.19-.36-.02-.15.14-.16.27-.21.14-.05-.03-.23-.35-.12-.33.11-.82.55-1.11.3-.3-.24.73-.46.89-.78.16-.32.16-.4-.2-.11-.36.29-.49.22-.68.31-.19.09.14-.2.26-.34.12-.14.09-.19.23-.43.14-.24.13-.5-.13-.22-.26.28-.3.43-.45.66-.15.23-.23.2-.55.46-.32.26-.3.27-.14.03s.24-.33.44-.61c.19-.27.14-.42.23-.52.09-.1.14-.2.32-.25.18-.05-.03-.26-.27-.04-.23.22-.18.07-.37.39-.19.32-.04-.01-.01-.19.02-.18-.12-.15-.19.14-.07.29-.14.59-.28.79-.15.2-.33.56-.44.61-.11.05.22-.4.37-.72.16-.33.15-.49.22-.78.07-.29.11-.7-.02-.55-.13.15-.09.55-.23.76-.14.22-.17.29-.24.37-.07.07-.09.27-.1.35-.01.08-.13-.14.02-.62.14-.48.23-1.29.07-.92-.16.37-.17.59-.2.65-.02.07.01-.16-.06-.45-.07-.29-.28-.53-.23-.13.05.4.17.89.1,1.15-.06.26-.08.35-.1.5-.01.14-.11-.51-.12-.74,0-.23-.22-.57-.34-.79-.12-.22-.31-.49-.25-.21.07.28.16.52.2.61.04.09-.07,0-.23-.31-.16-.31-.29-.37-.21-.04.08.33.42.54.49.8.07.26-.04.41.01.56.05.15.21.25-.22-.13-.43-.38-.48-.42-.62-.69-.14-.27-.1-.42-.27-.53-.17-.12-.34-.05-.13.23.2.27.46.81.56.91.1.1.18.22.37.38.16.14-.34.02-.51-.28-.17-.3-.35-.59-.57-.72-.21-.13-.53-.42-.31.06.17.36.25.28.47.62.22.34-.16.07-.29-.02-.13-.08-.29-.02-.06.11.23.13.73.5.41.38-.32-.13-.75-.52-.97-.56-.22-.03-.43.06-.05.24.38.18,1.18.53,1.34.7.48.5.9.62,1.14.64.03.25.05.71-.01,1.38,0,.05-.01.1-.02.14-.03.26-.08.56-.13.87-.17.93-.44,1.92-.65,1.98-.43.11-.86.71-.86.71-.18.28-.27.48-.33.64-.12.11-.23.24-.34.35-.46.52-.78.73-1.19,1.46-.36.65-.73,1.66-.84,1.72-.01-.02-.02-.04-.03-.06-.02-.29.39-1.08.57-1.62.19-.56.67-1.08,1.13-1.61.46-.53.32-.84,0-.56-.31.29-.74,1.03-.39.24.36-.79.14-.49.24-1.23.1-.74-.58-.87-.44-.46.14.42.02.63-.05.95-.07.32-.42.42-.68,1.15-.26.74-.35,1.03-.57,1.65-.22.62-.18.65-.12-.31.06-.96-.11-1.07.13-1.66.24-.59.47-.87.66-1.75.18-.88-.31-.55-.59.04-.28.59-.41.6-.51,1.02-.1.42-.2,1.44-.29.96-.09-.49-.39-.65-.33-1.73.06-1.07-.08-.96-.48-.23-.03.06-.05.13-.07.21,0-1.1.06-2.26.15-3.09.08-.7.18-1.28.29-1.75.1-.46.21-.82.29-1.06.5.07,1.4,0,2.59-.8.4-.27,2.19-.64,3.03-.85.84-.21.45-.48,0-.51-.46-.03-1.5.59-2.21.71-.71.12.47-.42,1-.59.52-.17.23-.36-.07-.25-.3.11-1.19.5-.59-.09.6-.6.74-.39,1.23-1.05.66-.87-.12-.42-.6-.25-.49.17-.99.67-1.47,1.21-.48.54-1.55.56-1.16.34.45-.26.68-.46.92-.62.25-.17,1-1.14,1.53-1.61.53-.47.22-.68-.17-.52-.4.16-.38.47-.78.97-.4.5-.54.55-1.57,1.14-1.03.59-.67.44-.5.16.17-.28,0-.63.26-1.13.26-.49,1.04-.77,1.36-1.42.31-.64.02-.59-.44-.02-.46.57-.73.7-.61.54.13-.16.43-.62.68-1.16.26-.54-.25-.06-.6.32-.34.39-.92,1-1.03,1.46-.11.46-.6,1.74-.57,1.45.03-.3.03-.49.01-1.05-.01-.56.44-1.51.71-2.3.27-.79-.26-.39-.53.16-.27.55-.3,1.04-.32.89-.02-.15.04-.59-.11-1.42-.15-.82-.33.86-.25,1.89.08,1.03-.24,1.43-.24,1.27,0-.17.06-.57-.05-.75-.12-.18-.14-.35-.33-.85-.19-.5.07-1.3-.14-1.65-.2-.35-.31.5-.29,1.11.02.62-.07.95.1,1.68.17.73.64,1.78.44,1.63-.19-.15-.41-.94-.62-1.43-.21-.48-.21-1.11-.23-1.74-.02-.62-.3-.75-.33-.37-.03.38.14,1.12-.11.39-.24-.74-.2-.4-.59-.95-.38-.55-.91-.22-.57-.03.34.19.39.4.54.65.15.25-.02.53.25,1.17.27.64.39.88.62,1.43.23.54.27.54-.27-.13-.54-.66-.72-.63-.92-1.17-.2-.53-.22-.85-.63-1.54-.41-.69-.53-.17-.36.38.18.56.1.64.28.98.19.34.74,1.07.39.8-.35-.27-.65-.19-1.26-.93-.61-.74-.63-.58-.45.14.18.72,2.17,1.62,1.46,1.98-.71.36-1.52-.73-2.13-1.11-.61-.37-1.03-.07-.77.08.26.16.56.26.47.54-.1.29.24.81.24.81,0,0,1.53,1.4,3.04,1.72.99.21,1.65.2,1.99.18.01.18.02.4,0,.66-.01.12-.02.25-.04.38-.11.94-.33,2.05-.43,3.3-.11,1.35-.07,2.45,0,3.27-.11-.04-.23-.07-.34-.07-.04,0-.08-.03-.13-.07-.1-.51-.11-1.1-.23-1.49-.22-.77-.79-.84-.7-.52.08.27.21.53.08.7-.26-.51-.51-1.05-.66-1.46-.25-.67-.35-1.14-.39-1.4.24-.08.63-.32.98-.96.12-.22.84-.79,1.17-1.08.33-.29.09-.32-.12-.23-.21.09-.54.61-.83.83-.29.22.12-.3.31-.5.2-.2.02-.22-.09-.1-.11.12-.42.5-.29.09.11-.33.2-.36.27-.56.02-.05.03-.11.05-.2.09-.55-.15-.16-.33.03-.03.03-.06.08-.09.12-.13.2-.22.48-.29.77-.09.35-.57.61-.45.42.14-.22.2-.36.27-.49.05-.1.12-.43.21-.73.03-.13.07-.25.11-.35.13-.33-.06-.36-.2-.19-.13.15-.08.27-.11.52,0,.03,0,.06-.02.1-.07.32-.12.37-.45.88-.33.5-.2.35-.19.19.01-.16-.15-.29-.14-.57,0-.2.15-.42.23-.65.03-.1.06-.19.05-.3,0-.36-.13-.27-.21.09-.02.07-.03.14-.05.19-.06.21-.12.28-.1.19,0-.04.02-.11.03-.2.01-.13.02-.3.01-.48,0-.3-.13.03-.19.28-.01.05-.03.12-.05.18-.06.24-.13.53-.08.71.06.23.13.93.08.78-.05-.14-.1-.23-.24-.48-.12-.22-.14-.66-.19-1.05,0-.05-.01-.1-.02-.15-.06-.4-.19-.15-.2.14,0,.02,0,.03,0,.05,0,.31.1.54.06.48-.04-.06-.11-.25-.32-.54-.02-.02-.04-.05-.06-.07-.11-.14-.12-.08-.07.07.06.21.24.59.4.84.28.45.22.7.19.63-.04-.08-.1-.27-.2-.33-.1-.06-.14-.12-.35-.31-.2-.18-.27-.6-.44-.72-.17-.11-.02.3.13.57s.19.44.43.74c.18.21.47.47.57.58,0,.02,0,.03,0,.05-.13-.04-.39-.33-.59-.49-.21-.17-.35-.45-.51-.73-.15-.28-.31-.27-.23-.09.07.18.32.48.04.2-.28-.28-.18-.14-.48-.29-.3-.16-.46.11-.26.12.2,0,.27.09.39.17.12.08.11.24.38.47.03.02.05.04.08.06,0,.03.01.06.02.1.01.09.03.16.04.22-.14-.05-.22-.07-.36-.19-.21-.19-.29-.34-.64-.55-.34-.22-.28.05-.07.26.21.21.19.27.35.38.16.11.58.31.36.27-.22-.04-.34.06-.78-.13-.45-.19-.42-.11-.17.17.25.28,1.35.23,1.12.55-.24.33-.86.02-1.22,0-.36-.03-.48.21-.33.22.15.01.31-.01.34.14.02.15.3.31.3.31,0,0,.15.04.37.08-.01.02-.02.04-.04.06-.23.42-.28.67-.31.75-.04.08.03-.19-.02-.54-.05-.35-.26-.66-.26-.18,0,.48.09,1.07-.02,1.37-.11.3-.14.41-.18.57-.03.17-.07-.62-.05-.89.02-.27-.19-.7-.3-.97-.12-.27-.31-.62-.27-.28.04.34.13.64.17.75.04.11-.08,0-.23-.4-.15-.39-.3-.47-.25-.07.06.4.43.69.49,1.01.06.31-.1.48-.06.66.04.18.21.32-.24-.18-.46-.5-.52-.55-.65-.89-.13-.34-.07-.51-.25-.66-.19-.16-.39-.1-.19.25.21.35.44,1.01.55,1.15.1.13.19.28.39.5.17.19-.41-.01-.57-.39-.16-.38-.35-.74-.58-.92-.24-.18-.57-.56-.37.03.15.45.26.36.48.79.22.43-.19.06-.34-.05-.14-.11-.33-.06-.08.12.25.19.8.68.44.5-.37-.19-.82-.71-1.07-.77-.26-.06-.52.01-.09.28.42.26,1.33.78,1.5.99.51.65.98.84,1.27.89,0,.3-.03.85-.18,1.63-.11.57-.34,1.38-.59,2.08-.26.73-.54,1.33-.72,1.36-.52.08-1.1.73-1.1.73-.88,1.11-.46,1.3-.46,1.3.43.09.7-.15,1.36-.89.66-.74.56-1.04.56-1.04,0,0,.35-.5.7-1.51.11-.33.23-.71.33-1.15.19-.79.27-1.52.4-2.08.03-.14.07-.26.11-.36.18.07.54.19,1.11.25.87.09,1.95-.4,1.95-.4,0,0,.27-.22.27-.4,0-.17.18-.17.35-.21.17-.04,0-.28-.4-.18-.4.09-1.03.55-1.35.22-.32-.32.92-.46,1.14-.82.22-.36.24-.45-.22-.16-.46.29-.61.2-.85.28-.24.08.19-.21.35-.37.16-.15.13-.21.33-.48.19-.27.22-.57-.13-.27-.34.3-.41.47-.61.73-.2.25-.29.21-.7.47-.41.27-.39.28-.17.02.22-.25.33-.36.59-.66.26-.3.22-.48.34-.59.12-.11.19-.22.41-.26.22-.04,0-.31-.31-.08-.3.23-.22.05-.49.41-.26.36-.04-.02,0-.23.05-.21-.12-.19-.24.14-.12.34-.23.68-.43.9-.2.22-.46.62-.59.66-.13.05.31-.44.53-.81.22-.37.23-.56.35-.89.12-.33.21-.81.04-.66-.17.16-.17.63-.36.87-.19.24-.23.32-.33.4-.1.08-.14.31-.16.4-.03.09-.13-.18.1-.73.16-.38.3-.95.3-1.12.36.06.9.11,1.34-.01.49-.13.79-.29.94-.38.05.08.1.18.15.3.19.48.36,1.1.64,1.77.13.32.27.6.39.84-.23.24-.32.77-.32.77,0,0,.07.86.35,1.84-.02.06-.04.12-.08.19-.15.29-.21.33-.66.73-.45.4-.29.29-.23.13.06-.16-.07-.31.01-.59.08-.27.44-.49.52-.85.09-.35-.05-.29-.22.04-.17.33-.29.43-.24.33.05-.09.15-.35.21-.65.07-.29-.13,0-.26.22-.13.23-.35.59-.36.83,0,.24-.11.93-.13.78-.02-.15-.04-.25-.1-.52-.07-.28.06-.8.11-1.22.05-.42-.17-.17-.24.14-.08.3-.04.55-.06.48-.02-.07-.04-.3-.21-.69-.16-.39-.07.46.08.97.15.5.03.74.02.65-.01-.08-.03-.29-.11-.37-.08-.08-.11-.16-.25-.39-.15-.23-.1-.65-.24-.81-.14-.15-.1.28-.03.58.07.3.07.48.23.82.16.35.51.82.39.76-.11-.05-.3-.43-.46-.64-.16-.22-.22-.53-.3-.84-.08-.31-.23-.34-.2-.15.02.19.19.54-.01.2-.2-.34-.14-.18-.39-.41-.25-.23-.47-.01-.28.04.19.06.24.16.34.27.1.11.04.26.25.55.2.29.29.4.46.64.17.25.19.24-.15-.03-.34-.27-.42-.24-.58-.48-.16-.24-.2-.4-.47-.7-.28-.3-.28-.03-.14.23.15.26.12.31.24.46.13.15.48.45.28.36-.2-.09-.34-.03-.72-.33-.38-.3-.37-.22-.21.12.16.34,1.25.57.94.83-.31.25-.83-.2-1.18-.32-.34-.12-.52.07-.37.12.14.05.3.07.29.22,0,.06.03.13.07.2.06.1.14.18.14.18,0,0,.91.53,1.69.53.51,0,.84-.07,1-.12.03.09.05.2.07.33.06.51.07,1.16.16,1.88.1.76.26,1.34.39,1.75-.11.1-.22.19-.33.29-2.63,2.43-3.56,4.33-3.56,4.33,0,0-.61.12-1.24,1.96-.62,1.84-.77,2.54-.21,3.19,0,0,.73.52,1.78-2.05,0,0,.55-1.62.19-2.59-.2-.55,1.85-2.91,3.57-4.58.04.09.07.14.07.14,0,0-.12.26.4.97.52.71.74.95,1.12.91,0,0,.38-.13-.29-1.19,0,0-.46-.63-.91-.75-.06-.02-.13-.12-.2-.27.31-.3.61-.57.87-.8,1.19-1.03,2.1-1.6,2.61-1.89.35.42,1.11,1.04,2.62,1.29.04,0,.08.01.12.02.36.06,1.28.55,2.1,1.02-.1.16-.05.52-.17.74-.12.22-.15.29-.21.37-.05.06-.07.19-.07.28,0,.02,0,.05,0,.07,0,.05-.06-.02-.06-.19,0-.1,0-.24.05-.41.11-.47.15-1.27.02-.9-.13.37-.14.58-.15.65-.02.07,0-.16-.08-.44-.09-.28-.3-.5-.23-.11.05.26.12.55.16.8.02.12.02.23,0,.32-.05.26-.06.35-.07.49,0,.14-.14-.49-.16-.71-.02-.22-.24-.54-.37-.75-.13-.2-.33-.46-.25-.19.08.27.19.5.23.59.05.08-.07,0-.24-.29-.17-.3-.31-.34-.21-.02.1.32.44.51.53.75.09.25-.02.4.04.54.06.14.21.23-.22-.11-.44-.35-.5-.38-.65-.64-.15-.26-.12-.4-.29-.51-.17-.1-.33-.03-.12.23.21.26.49.76.59.86.1.09.19.2.38.35.16.13-.33.04-.51-.24-.18-.28-.38-.55-.59-.67-.21-.11-.54-.38-.3.07.18.34.26.26.5.58.24.32-.15.07-.28,0-.13-.07-.28,0-.05.11.23.12.74.45.42.35-.32-.1-.76-.47-.97-.49-.22-.02-.42.08-.04.24.38.16,1.18.46,1.35.61.5.46.91.55,1.14.56.04.24.09.69.06,1.35-.03.7-.18,1.86-.38,2.51-.95.32-2.69.7-2.88.48-.28-.33-.98-.47-.98-.47-1.15-.16-1.11.22-1.11.22.11.34.4.43,1.2.59.8.16.97-.04.97-.04,0,0,.88.06,2.31-.38.14-.04.27-.09.4-.14-.05.11-.1.19-.15.2-.41.13-.8.74-.8.74-.57,1.01-.21,1.12-.21,1.12.36.02.55-.21.99-.9.44-.68.32-.91.32-.91,0,0,.06-.12.13-.35.35-.13.67-.26.95-.35.12-.04.22-.06.3-.07.02.16.09.46.28.89.17.38.52.73.77.95.19.16.33.26.33.26,0,0,.27.1.39.03.12-.07.2.06.3.16.1.1.19-.12-.04-.36-.23-.24-.82-.5-.73-.86.09-.36.71.46,1.06.47.35,0,.42-.02.02-.22-.4-.2-.4-.35-.56-.48-.16-.13.23.05.41.1.17.05.2,0,.48.03.27.02.49-.09.14-.2-.36-.12-.51-.09-.77-.13-.26-.04-.27-.12-.63-.3-.36-.18-.36-.16-.09-.11.27.05.39.08.72.14.32.06.43-.05.56,0,.13.04.23.04.35.18.12.14.22-.14-.07-.26-.29-.12-.13-.13-.49-.17-.36-.04,0-.04.17-.09.17-.05.08-.17-.2-.11-.29.06-.58.12-.82.07-.22-.04-.57-.06-.69-.12-.01,0-.02-.01-.03-.02-.02-.02,0-.02.02-.02.11,0,.49.06.77.06.35,0,.5-.07.78-.13.28-.06.66-.19.48-.25s-.52.14-.77.11c-.25-.03-.33-.03-.42-.06-.1-.03-.27.03-.35.05-.08.02.08-.17.56-.24.48-.07,1.23-.32.84-.31-.39.01-.59.09-.66.09-.07,0,.15-.06.38-.24.23-.18.35-.46.02-.26-.33.21-.72.51-.98.56-.26.05-.35.07-.48.11-.13.05.41-.31.6-.41.2-.1.42-.42.56-.62.14-.2.31-.48.09-.31-.22.17-.4.36-.46.43-.06.08-.03-.06.18-.33.21-.27.21-.41-.06-.2-.26.21-.31.6-.51.77-.2.17-.38.13-.49.24-.11.11-.14.29.02-.25.16-.53.17-.6.36-.84.15-.19.27-.24.33-.36.21-.1.44-.2.69-.33.28-.14.51-.27.71-.39-.05.06-.07.19-.04.44.08.71.33,2.18.23,2.57-.27,1.15-.05,1.86.14,2.22-.33.27-.97.73-1.99,1.26-.12.06-.24.12-.38.19-1.61.77-4.3,1.77-4.66,1.44-.56-.51-1.81-.57-1.81-.57-2.03.01-1.87.65-1.87.65.28.56.8.65,2.22.73,1.42.08,1.67-.31,1.67-.31,0,0,1.54-.11,3.91-1.24.18-.09.36-.17.53-.26.82-.43,1.54-.87,2.16-1.17.19-.09.36-.15.5-.2.08.27.27.78.71,1.47.28.43.69.81,1.08,1.11-.09.04-.14.07-.14.07-1.25.78-.92,1.12-.92,1.12.39.24.75.1,1.66-.4.12-.07.23-.13.32-.19.13.07.21.11.21.11,0,0,.5.11.69-.05.19-.16.36.05.55.2.19.15.3-.26-.16-.62-.15-.12-.37-.23-.6-.35.11-.09.31-.27.57-.54.19.09.36.14.5.12.6-.07.72-.14-.02-.39-.06-.02-.12-.04-.18-.07.15-.18.32-.38.5-.62.05,0,.1,0,.16-.01.48-.03.83-.27.19-.39-.02,0-.03,0-.05,0,.07-.1.13-.19.2-.3.02-.04.05-.07.07-.11.15.11.24-.05.13-.22.36-.59.64-1.16.92-1.59.08-.13.16-.23.24-.31.15.14.46.38,1.01.64.41.2.91.27,1.32.29.42.03.74,0,.74,0,0,0,.35-.12.41-.3.06-.17.24-.11.42-.09.18.02.09-.28-.34-.32-.36-.04-.98.11-1.28-.1-.06-.04-.1-.09-.13-.15-.05-.11,0-.18.11-.21.3-.1,1.05.01,1.31-.19.35-.28.4-.36-.16-.23-.56.13-.67-.01-.94-.02-.26,0,.27-.14.48-.24.21-.09.2-.16.49-.36.29-.2.41-.49-.03-.31-.45.18-.57.32-.86.5-.15.09-.24.12-.36.13-.12.02-.26.03-.5.09-.5.12-.48.14-.17-.04.25-.14.4-.22.65-.35.05-.03.11-.06.17-.09.36-.2.38-.4.54-.46.16-.07.26-.15.49-.11.23.04.1-.31-.28-.19-.38.12-.24-.02-.62.24-.38.26-.03-.03.09-.22.12-.19-.05-.23-.29.06-.06.07-.12.15-.18.22-.18.21-.36.41-.56.52-.28.15-.67.45-.81.45-.15,0,.46-.33.81-.61.28-.23.39-.4.54-.6.04-.05.08-.1.12-.16.23-.29.5-.73.27-.64-.16.06-.29.31-.44.51-.07.09-.14.17-.23.23-.27.17-.34.24-.47.28-.12.04-.24.26-.3.34-.06.08-.07-.23.35-.69.19-.21.4-.51.55-.73.17-.27.23-.44.03-.26-.02.02-.05.04-.07.06-.32.3-.45.51-.5.57-.06.06.1-.18.17-.54.07-.36-.03-.74-.19-.27-.16.47-.29,1.09-.5,1.35-.21.26-.28.35-.38.5-.09.15.15-.63.26-.89.11-.26.06-.76.04-1.07-.02-.31-.09-.72-.16-.37-.07.35-.1.68-.1.8,0,.12-.08-.04-.09-.48,0-.12-.01-.21-.03-.28.12-.12.25-.26.38-.41.24-.28.45-.56.65-.82.14-.18.27-.36.4-.51.08-.09.15-.16.21-.21.1.12.31.33.69.59.58.39,1.52.43,1.52.43,0,0,.27-.06.34-.18.06-.12.19-.06.32-.02.13.03.1-.2-.22-.28-.32-.08-.93,0-1.04-.34-.11-.34.82.01,1.11-.16.29-.17.33-.23-.1-.19-.43.04-.5-.08-.7-.11-.2-.03.21-.08.38-.13.17-.05.17-.1.41-.22.24-.12.36-.32,0-.24-.35.09-.46.18-.7.29-.24.1-.28.04-.67.07-.39.04-.38.05-.13-.05.25-.1.36-.14.66-.25.29-.12.33-.26.46-.29.13-.03.21-.09.38-.03.17.05.11-.22-.19-.17-.3.05-.18-.04-.49.11-.32.16-.02-.03.09-.16.11-.13-.02-.18-.22.01-.21.19-.41.39-.64.48-.22.08-.55.27-.66.25-.11-.02.38-.2.67-.38.29-.18.37-.31.58-.5.2-.19.45-.5.27-.45-.18.05-.35.38-.58.48-.22.1-.28.14-.38.16-.1.02-.21.17-.26.22-.05.06-.03-.18.33-.48.36-.3.85-.9.53-.68-.32.21-.44.37-.49.42-.05.04.09-.12.19-.39.09-.26.05-.56-.11-.22-.17.34-.33.79-.52.96-.18.17-.25.23-.34.34-.09.1.17-.46.29-.64.11-.18.13-.56.14-.8.02-.23,0-.55-.09-.3-.09.25-.15.5-.16.59-.01.09-.06-.04-.02-.37.04-.33-.04-.44-.15-.14-.11.31.05.65-.03.89-.08.24-.25.3-.28.44-.03.14.03.31-.11-.21-.14-.52-.17-.58-.13-.87.03-.29.14-.38.06-.56-.07-.18-.24-.21-.22.11.02.32-.06.87-.03,1.01.02.13.03.27.09.5.05.2-.28-.16-.26-.48.02-.33.03-.65-.07-.86-.1-.21-.2-.61-.27-.12-.06.37.05.35.05.73,0,.39-.16-.03-.22-.16-.06-.13-.21-.17-.1.06.11.22.32.78.13.51-.19-.27-.32-.8-.47-.94-.16-.14-.37-.18-.17.16.2.34.65,1.03.69,1.25.12.64.39.95.57,1.09-.08.15-.21.38-.42.68-.09.12-.19.26-.3.4-.37.45-1,1.12-1.51,1.55,0-.33.1-.47-.02-.68-.13-.22-.35-.23-.27.18.04.19.06.43.07.67-.08.06-.15.11-.21.15-.04-.22-.1-.42-.19-.56-.17-.26-.37-.76-.38-.1,0,.4.08.45.15.71-.1-.01-.21,0-.32,0-.08-.08-.17-.08-.14.02-.06.01-.11.02-.16.04-.11-.18-.21-.34-.31-.4-.23-.15-.51-.17-.19.24.06.07.13.16.21.25-.54.25-.72.44-.77.57-.03,0-.07.03-.15.11-.34.35-.6.72-.69.86-.09.15-.06-.1.24-.62.3-.52.26-.76-.15-.33-.4.43-.39,1.11-.69,1.45-.3.35-.62.32-.79.53-.16.21-.17.53-.02-.43.15-.96.15-1.08.41-1.54.26-.45.51-.53.52-.88.01-.35-.24-.52-.45.02-.21.54-.73,1.4-.79,1.64-.06.23-.14.47-.21.89-.06.36-.35-.47-.08-.99.28-.52.52-1.05.5-1.48-.01-.42.11-1.15-.37-.39-.36.58-.17.62-.45,1.25-.28.64-.24-.16-.24-.43,0-.26-.23-.43-.21.02.02.45-.05,1.51-.16.94-.12-.58.06-1.56-.1-1.9-.09-.19-.22-.34-.31-.32.84-.55.86-.92.86-.92,0,0,1.59-1.05,3.47-3.68,0,.03.01.06.03.1.11.3.36.91.36,1.09,0,.53.16.81.28.95-.12.15-.35.42-.74.75-.58.49-1.81,1.33-2.02,1.21-.29-.16-.84-.07-.84-.07-.88.21-.75.47-.75.47.18.21.41.2,1.03.09.62-.11.69-.3.69-.3,0,0,.66-.2,1.57-.93.41-.32.73-.66,1.02-.89.07-.06.14-.1.2-.14.06.11.19.31.46.57.4.39,1.14.57,1.14.57,0,0,.23,0,.29-.09.07-.09.16-.02.26.03.1.05.11-.14-.13-.25-.24-.11-.73-.13-.77-.42-.03-.29.64.13.9.04.25-.09.3-.13-.05-.17-.35-.03-.39-.14-.54-.19-.15-.05.18-.03.32-.04.14-.01.15-.05.35-.11.2-.06.33-.2.04-.19-.29.02-.39.08-.59.12-.2.05-.23-.01-.54-.04-.31-.03-.3-.01-.09-.06s.31-.05.56-.1c.25-.05.3-.16.4-.16.11,0,.18-.04.31.03.13.07.12-.16-.12-.16-.24,0-.13-.06-.41.02-.27.08-.01-.03.1-.11.11-.09.01-.15-.18-.02-.19.12-.39.25-.57.28-.19.03-.47.13-.56.1-.08-.03.33-.1.58-.2.26-.1.34-.19.53-.31.19-.12.43-.33.28-.31-.15.01-.34.25-.53.3-.19.05-.25.07-.32.07-.08,0-.19.1-.24.14-.05.04,0-.14.34-.33.33-.18.8-.58.52-.46-.28.12-.4.23-.45.25-.05.02.09-.08.21-.28.11-.19.13-.44-.06-.19-.18.24-.38.57-.55.68-.17.11-.23.15-.32.22-.08.07.21-.34.32-.47.12-.13.18-.43.23-.61.05-.18.09-.43-.02-.25-.11.19-.19.37-.21.44-.02.07-.04-.04.04-.29.08-.26.03-.36-.1-.13-.13.23-.06.52-.15.7-.1.18-.24.2-.29.31-.05.11-.02.25-.05-.19-.03-.43-.04-.48.02-.71.07-.22.17-.28.13-.43-.03-.15-.16-.2-.19.05-.03.26-.18.68-.18.79,0,.11-.01.22,0,.4.01.16-.2-.17-.13-.42.07-.25.12-.51.07-.69-.05-.18-.07-.51-.2-.13-.1.29,0,.28-.07.59-.06.3-.12-.05-.15-.16-.03-.11-.14-.16-.09.03.05.19.13.66.02.42-.11-.24-.13-.68-.23-.81-.04-.05-.08-.08-.12-.1.61-.87,1.1-1.72,1.56-2.44.15-.23.29-.45.43-.65.15-.22.29-.38.43-.52.25.24.76.68,1.66,1.16,1.38.74,3.49.65,3.49.65,0,0,.6-.19.72-.47.11-.29.42-.17.72-.12.3.05.17-.46-.55-.57ZM461,8.87c-.09-.04-.16-.07-.23-.09,0,0,0-.01,0-.02,0-.06,0-.13,0-.21.13.1.23.18.38.31.23.19.25.18-.15,0ZM465.57,14.35s-.04-.03-.06-.04c-.03-.29-.05-.61-.06-.95.04.35.1.7.12.99ZM463.81,16.3s.03.08.05.12c-.1.05-.16.05-.05-.12ZM463.92,16.55s.03.07.05.11c-.08.05-.15.09-.22.11-.24.09-.05-.07.17-.23ZM462.86,16.62c.2-.18.29-.3.39-.41.07-.07.19-.31.33-.55.03.08.05.16.08.24-.09.13-.18.27-.26.42-.18.32-.71.44-.54.29ZM465.33,19.46c-.71.65-1.66,1.35-2.65,2.21-.21-.7-.39-1.71-.45-2.35-.07-.71-.04-1.2-.01-1.46.18-.01.46-.09.79-.32.13-.09.26-.2.41-.35.09-.09.35-.23.64-.37.09.16.18.31.28.45.24.34.47.62.67.85.35.4.64.65.83.8-.13.16-.29.34-.51.54ZM469.42,19.1c.57.13.91.14,1.23.19.34.05,1.69-.18,2.49-.17.07,0,.13,0,.18,0-.06.3-.06.47-.06.47,0,0-.1.07-.12.37-.13-.05-.26-.09-.37-.14-.53-.23-1.33-.2-2.13-.11-.8.08-1.71-.72-1.22-.6ZM471.99,22.3c.1.05.19.1.27.15,0,0,.02,0,.03.01-.16.22-.2.36-.32.56-.13.23-.21.21-.51.47-.3.27-.28.28-.13.04.15-.24.22-.34.39-.62.17-.28.11-.42.2-.52.03-.03.05-.07.07-.1ZM471.1,23.15c.13-.33.12-.49.17-.77.03-.15.04-.34.03-.46.18.1.36.21.53.3-.09.07-.1.04-.23.29-.17.32-.04-.01-.02-.19.01-.18-.12-.14-.18.15-.05.29-.1.58-.23.79-.07.11-.14.25-.22.38-.07.11-.13.21-.18.24-.06.03.02-.13.13-.33.07-.13.14-.27.19-.4ZM470.96,25.96c.17.11.33.18.52.21,0,.24-.03.46-.06.55-.25.63-.18,1.05-.1,1.27-.19.11-.54.3-1.07.49.11-.39.23-.96.29-1.7.05-.67.02-1.27.05-1.74,0-.12.02-.22.04-.31.14.03.43.08.84.06.03,0,.06,0,.09,0,.01,0,.02,0,.03,0-.03.03-.06.05-.09.08-.86.73-.54,1.09-.54,1.09ZM471.63,26.27s0-.06,0-.09c.03,0,.06,0,.1,0-.04.18-.09.28-.1.09ZM472.3,26.48c-.05.13-.12.25-.19.49,0,0,0,0,0,0-.04.13-.1-.08-.07-.3.02-.09.05-.19.1-.27.09-.12.17-.25.24-.37.09-.03.19-.07.3-.11-.16.23-.35.47-.38.56ZM478.21,33.06c-.33-.21-.6-.45-.57-.78.05-.43.61-.02,1.17.28-.24.26-.46.45-.6.5ZM479.1,32.23c-.32-.18-.39-.35-.62-.49-.31-.19.41.02.73.07.1.01.17.01.23,0-.11.15-.23.29-.34.42ZM479.83,31.3c-.38-.03-.61.02-.96.02-.47,0-.49-.14-1.16-.36-.67-.22-.66-.19-.18-.17.48.02.7.04,1.27.06.57.02.73-.19.97-.15.16.03.29.03.43.08-.12.17-.24.34-.37.52ZM481.92,25.21c-.05.39.19.78.13,1.09-.05.33-.27.44-.29.63-.02.19.1.39-.18-.26-.22-.51-.29-.67-.32-.9.18-.14.4-.32.65-.56ZM481.06,25.92c.01.18.03.33.05.39.05.16.09.34.21.63.1.25-.4-.16-.43-.59,0-.1-.02-.21-.03-.31.05-.03.11-.07.2-.13ZM480.3,26.5c.1.2.14.34-.02.16-.03-.03-.06-.07-.09-.11.04-.02.08-.03.11-.05ZM477.94,30.12c.61-.08.84-.24,1.32-.41.48-.17,1.1-.49.77-.55-.33-.05-.87.37-1.31.38-.44,0-.57.03-.75,0-.17-.04-.46.12-.59.18-.13.05.09-.31.9-.55.81-.24,2.06-.86,1.38-.74-.68.12-1,.3-1.12.33-.12.03.25-.14.59-.51.35-.37.5-.89-.03-.45-.53.44-1.12,1.07-1.55,1.22-.43.15-.58.21-.8.32-.22.11.62-.63.95-.86.32-.22.62-.84.82-1.21.09-.17.18-.36.22-.5,0,0,0,0,0,0,.27.22.55.15,1.27-.12.21.27.39.52.43.64.27.82.68,1.17.94,1.32-.1.29-.32.83-.75,1.54-.07.12-.16.26-.25.4-.04-.02-.07-.03-.12-.04-.53-.13-.26-.2-.9-.17-.64.03-.01-.06.27-.2.28-.13.11-.31-.38-.14-.48.17-.97.35-1.4.33-.43-.02-1.1.05-1.27-.06-.17-.11.77-.05,1.38-.14Z"></path>
        <path class="cls-3" d="M478.27,17.49c-.38.6-.46,1-.46,1,0,0-.11.05-.14.44-.03.38-.02.52.12.62,0,0,.16.06.23-.48,0,0,.02-.34-.09-.5-.08-.12.34-.91.6-1.29.17-.26.32-.41.4-.49.09.06.27.15.59.11.06,0,.23.03.39.07.11.03.21.06.29.07.19.05.14-.05.05-.1-.07-.04-.26-.04-.4-.07-.04,0-.07-.01-.1-.02-.09-.03-.03-.04.06-.03.06,0,.14.01.19.02.12.02.08-.05.01-.06-.07,0-.29-.02-.11-.08.18-.05.18,0,.35-.08.22-.1.02-.09-.09-.11-.11-.02-.26.03-.41.09-.03.01-.06.01-.09.02-.13,0-.26-.07-.18-.07.05,0,.09,0,.12,0,.05,0,.09-.01.12-.02.07,0,.31-.12.46-.16.15-.04.11-.11.02-.12-.09,0-.12.05-.25.11-.13.06-.16.05-.42.06,0,0-.02,0-.02,0-.23,0-.15.01-.09-.02.02-.01.03-.03.04-.04.03-.04.05-.1.12-.15.1-.07.28-.04.41-.14.13-.09.06-.11-.08-.05-.15.06-.22.06-.17.04.04-.02.15-.08.25-.16.1-.08-.04-.04-.15,0-.11.04-.28.1-.35.18-.03.03-.08.08-.13.13-.08.07-.15.13-.13.1.03-.04.05-.08.09-.15,0-.02.02-.03.03-.05.05-.11.24-.25.38-.38.13-.13,0-.1-.12-.02-.11.08-.17.17-.15.14.01-.03.07-.11.12-.29.05-.18-.15.13-.24.34-.03.07-.06.11-.08.15-.06.08-.1.1-.09.07.01-.02.05-.07.06-.12,0-.01,0-.03,0-.04,0-.05,0-.08.02-.2.02-.12.15-.25.14-.34s-.11.07-.17.19c-.05.09-.09.15-.12.23-.01.03-.02.06-.03.1-.04.16-.06.41-.08.36-.02-.05.02-.23.02-.34,0-.06.02-.12.05-.18.02-.06.06-.12.09-.18.06-.12.02-.18-.03-.11-.04.07-.09.23-.06.06.03-.17,0-.1-.02-.25-.02-.15-.15-.14-.11-.06.05.07.03.12.04.18,0,.05-.03.09-.06.17,0,.02-.01.05-.01.08-.01.15-.01.21-.03.34-.01.13,0,.13-.04-.05-.04-.19-.07-.2-.06-.32,0-.07.02-.12.03-.19,0-.05.01-.1,0-.18,0-.18-.09-.09-.11.04,0,0,0,0,0,0-.02.12-.04.13-.04.21,0,.09.04.28,0,.2-.04-.09-.11-.1-.15-.31-.04-.21-.06-.18-.1-.02-.04.16.26.54.08.54-.18,0-.22-.3-.3-.44-.08-.14-.19-.12-.16-.06.03.06.08.11.03.15-.05.05-.04.18-.04.18,0,0,.16.43.42.65.17.14.3.21.37.24-.02.04-.04.08-.07.13-.12.19-.3.41-.47.67Z"></path>
      </g>
    </g>
  </g>
</svg>
